HIERARCHY
ROOT mixamorig6:Hips
{
	OFFSET 0.000000 98.037537 0.000000
	CHANNELS 6 Xposition Yposition Zposition Xrotation Yrotation Zrotation
	JOINT mixamorig6:Spine
	{
		OFFSET 0.000000 10.236603 -0.985400
		CHANNELS 3 Xrotation Yrotation Zrotation
		JOINT mixamorig6:Spine1
		{
			OFFSET 0.000000 11.942696 -1.149615
			CHANNELS 3 Xrotation Yrotation Zrotation
			JOINT mixamorig6:Spine2
			{
				OFFSET 0.000000 13.648811 -1.313847
				CHANNELS 3 Xrotation Yrotation Zrotation
				JOINT mixamorig6:Neck
				{
					OFFSET 0.000000 15.354919 -1.478078
					CHANNELS 3 Xrotation Yrotation Zrotation
					JOINT mixamorig6:Head
					{
						OFFSET 0.000000 3.779800 1.345900
						CHANNELS 3 Xrotation Yrotation Zrotation
						JOINT mixamorig6:HeadTop_End
						{
							OFFSET 0.000000 25.046295 8.918200
							CHANNELS 3 Xrotation Yrotation Zrotation
							End Site
							{
								OFFSET 0.000000 26.586685 0.000000
							}
						}
					}
				}
				JOINT mixamorig6:LeftShoulder
				{
					OFFSET 6.191300 13.567673 -1.482547
					CHANNELS 3 Xrotation Yrotation Zrotation
					JOINT mixamorig6:LeftArm
					{
						OFFSET 12.653139 -3.421951 -0.008858
						CHANNELS 3 Xrotation Yrotation Zrotation
						JOINT mixamorig6:LeftForeArm
						{
							OFFSET 27.071707 0.000000 -0.000001
							CHANNELS 3 Xrotation Yrotation Zrotation
							JOINT mixamorig6:LeftHand
							{
								OFFSET 25.567696 0.000000 -0.000001
								CHANNELS 3 Xrotation Yrotation Zrotation
								JOINT mixamorig6:LeftHandThumb1
								{
									OFFSET 3.060722 -1.462875 2.317776
									CHANNELS 3 Xrotation Yrotation Zrotation
									JOINT mixamorig6:LeftHandThumb2
									{
										OFFSET 2.545944 -1.469894 1.469902
										CHANNELS 3 Xrotation Yrotation Zrotation
										JOINT mixamorig6:LeftHandThumb3
										{
											OFFSET 2.680428 -1.547546 1.547546
											CHANNELS 3 Xrotation Yrotation Zrotation
											JOINT mixamorig6:LeftHandThumb4
											{
												OFFSET 2.195984 -1.267853 1.267851
												CHANNELS 3 Xrotation Yrotation Zrotation
												End Site
												{
													OFFSET 1.887344 -1.224472 1.725070
												}
											}
										}
									}
								}
								JOINT mixamorig6:LeftHandIndex1
								{
									OFFSET 9.800262 -0.300766 2.394910
									CHANNELS 3 Xrotation Yrotation Zrotation
									JOINT mixamorig6:LeftHandIndex2
									{
										OFFSET 3.112297 0.000000 -0.000000
										CHANNELS 3 Xrotation Yrotation Zrotation
										JOINT mixamorig6:LeftHandIndex3
										{
											OFFSET 2.927002 0.000000 -0.000000
											CHANNELS 3 Xrotation Yrotation Zrotation
											JOINT mixamorig6:LeftHandIndex4
											{
												OFFSET 2.493301 0.000000 0.000000
												CHANNELS 3 Xrotation Yrotation Zrotation
												End Site
												{
													OFFSET 2.493301 0.000000 -0.001000
												}
											}
										}
									}
								}
								JOINT mixamorig6:LeftHandMiddle1
								{
									OFFSET 10.096680 0.000000 -0.000000
									CHANNELS 3 Xrotation Yrotation Zrotation
									JOINT mixamorig6:LeftHandMiddle2
									{
										OFFSET 3.179199 0.000000 0.000000
										CHANNELS 3 Xrotation Yrotation Zrotation
										JOINT mixamorig6:LeftHandMiddle3
										{
											OFFSET 3.130302 0.000000 0.000000
											CHANNELS 3 Xrotation Yrotation Zrotation
											JOINT mixamorig6:LeftHandMiddle4
											{
												OFFSET 2.641899 0.000000 0.000000
												CHANNELS 3 Xrotation Yrotation Zrotation
												End Site
												{
													OFFSET 2.641907 -0.000015 -0.001200
												}
											}
										}
									}
								}
								JOINT mixamorig6:LeftHandRing1
								{
									OFFSET 9.987442 -0.147278 -2.303933
									CHANNELS 3 Xrotation Yrotation Zrotation
									JOINT mixamorig6:LeftHandRing2
									{
										OFFSET 2.756905 0.000000 0.000000
										CHANNELS 3 Xrotation Yrotation Zrotation
										JOINT mixamorig6:LeftHandRing3
										{
											OFFSET 2.708405 0.000000 0.000000
											CHANNELS 3 Xrotation Yrotation Zrotation
											JOINT mixamorig6:LeftHandRing4
											{
												OFFSET 2.101418 0.000000 0.000000
												CHANNELS 3 Xrotation Yrotation Zrotation
												End Site
												{
													OFFSET 2.101402 -0.000137 -0.009199
												}
											}
										}
									}
								}
								JOINT mixamorig6:LeftHandPinky1
								{
									OFFSET 8.892174 -0.241959 -4.491873
									CHANNELS 3 Xrotation Yrotation Zrotation
									JOINT mixamorig6:LeftHandPinky2
									{
										OFFSET 2.615402 0.000000 0.000000
										CHANNELS 3 Xrotation Yrotation Zrotation
										JOINT mixamorig6:LeftHandPinky3
										{
											OFFSET 2.179611 0.000000 0.000000
											CHANNELS 3 Xrotation Yrotation Zrotation
											JOINT mixamorig6:LeftHandPinky4
											{
												OFFSET 1.785103 0.000000 0.000000
												CHANNELS 3 Xrotation Yrotation Zrotation
												End Site
												{
													OFFSET 1.785103 0.000137 0.004598
												}
											}
										}
									}
								}
							}
						}
					}
				}
				JOINT mixamorig6:RightShoulder
				{
					OFFSET -6.191300 13.567627 -1.473602
					CHANNELS 3 Xrotation Yrotation Zrotation
					JOINT mixamorig6:RightArm
					{
						OFFSET -12.653151 -3.421906 0.008869
						CHANNELS 3 Xrotation Yrotation Zrotation
						JOINT mixamorig6:RightForeArm
						{
							OFFSET -27.069597 0.000000 0.000001
							CHANNELS 3 Xrotation Yrotation Zrotation
							JOINT mixamorig6:RightHand
							{
								OFFSET -25.565407 0.000000 0.000001
								CHANNELS 3 Xrotation Yrotation Zrotation
								JOINT mixamorig6:RightHandThumb1
								{
									OFFSET -3.209328 -1.689423 2.514706
									CHANNELS 3 Xrotation Yrotation Zrotation
									JOINT mixamorig6:RightHandThumb2
									{
										OFFSET -2.734825 -1.578949 1.578950
										CHANNELS 3 Xrotation Yrotation Zrotation
										JOINT mixamorig6:RightHandThumb3
										{
											OFFSET -2.487328 -1.436066 1.436059
											CHANNELS 3 Xrotation Yrotation Zrotation
											JOINT mixamorig6:RightHandThumb4
											{
												OFFSET -1.930344 -1.114487 1.114487
												CHANNELS 3 Xrotation Yrotation Zrotation
												End Site
												{
													OFFSET -1.710335 -1.095474 1.443985
												}
											}
										}
									}
								}
								JOINT mixamorig6:RightHandIndex1
								{
									OFFSET -9.905579 -0.263855 2.371006
									CHANNELS 3 Xrotation Yrotation Zrotation
									JOINT mixamorig6:RightHandIndex2
									{
										OFFSET -3.114998 0.000000 0.000000
										CHANNELS 3 Xrotation Yrotation Zrotation
										JOINT mixamorig6:RightHandIndex3
										{
											OFFSET -2.926697 0.000000 0.000000
											CHANNELS 3 Xrotation Yrotation Zrotation
											JOINT mixamorig6:RightHandIndex4
											{
												OFFSET -2.405304 0.000000 0.000000
												CHANNELS 3 Xrotation Yrotation Zrotation
												End Site
												{
													OFFSET -2.405304 0.000015 -0.001500
												}
											}
										}
									}
								}
								JOINT mixamorig6:RightHandMiddle1
								{
									OFFSET -10.116516 0.000000 0.000000
									CHANNELS 3 Xrotation Yrotation Zrotation
									JOINT mixamorig6:RightHandMiddle2
									{
										OFFSET -3.238800 0.000000 0.000000
										CHANNELS 3 Xrotation Yrotation Zrotation
										JOINT mixamorig6:RightHandMiddle3
										{
											OFFSET -3.089897 0.000000 0.000000
											CHANNELS 3 Xrotation Yrotation Zrotation
											JOINT mixamorig6:RightHandMiddle4
											{
												OFFSET -2.640900 0.000000 0.000000
												CHANNELS 3 Xrotation Yrotation Zrotation
												End Site
												{
													OFFSET -2.640900 0.000000 0.000100
												}
											}
										}
									}
								}
								JOINT mixamorig6:RightHandRing1
								{
									OFFSET -10.100227 -0.043533 -2.288989
									CHANNELS 3 Xrotation Yrotation Zrotation
									JOINT mixamorig6:RightHandRing2
									{
										OFFSET -2.832199 0.000000 0.000000
										CHANNELS 3 Xrotation Yrotation Zrotation
										JOINT mixamorig6:RightHandRing3
										{
											OFFSET -2.645599 0.000000 0.000000
											CHANNELS 3 Xrotation Yrotation Zrotation
											JOINT mixamorig6:RightHandRing4
											{
												OFFSET -2.186401 0.000000 0.000000
												CHANNELS 3 Xrotation Yrotation Zrotation
												End Site
												{
													OFFSET -2.186401 -0.000015 -0.001400
												}
											}
										}
									}
								}
								JOINT mixamorig6:RightHandPinky1
								{
									OFFSET -8.769279 -0.239441 -4.443583
									CHANNELS 3 Xrotation Yrotation Zrotation
									JOINT mixamorig6:RightHandPinky2
									{
										OFFSET -2.635300 0.000000 0.000000
										CHANNELS 3 Xrotation Yrotation Zrotation
										JOINT mixamorig6:RightHandPinky3
										{
											OFFSET -2.200104 0.000000 0.000000
											CHANNELS 3 Xrotation Yrotation Zrotation
											JOINT mixamorig6:RightHandPinky4
											{
												OFFSET -1.875404 0.000000 0.000000
												CHANNELS 3 Xrotation Yrotation Zrotation
												End Site
												{
													OFFSET -1.875397 0.000015 0.002400
												}
											}
										}
									}
								}
							}
						}
					}
				}
			}
		}
	}
	JOINT mixamorig6:LeftUpLeg
	{
		OFFSET 9.149300 -5.691597 -0.209800
		CHANNELS 3 Xrotation Yrotation Zrotation
		JOINT mixamorig6:LeftLeg
		{
			OFFSET 0.367366 -40.775387 -3.165122
			CHANNELS 3 Xrotation Yrotation Zrotation
			JOINT mixamorig6:LeftFoot
			{
				OFFSET -0.367361 -38.890987 -2.495499
				CHANNELS 3 Xrotation Yrotation Zrotation
				JOINT mixamorig6:LeftToeBase
				{
					OFFSET 3.266852 -11.730358 15.127188
					CHANNELS 3 Xrotation Yrotation Zrotation
					JOINT mixamorig6:LeftToe_End
					{
						OFFSET 1.671803 -0.049743 6.701437
						CHANNELS 3 Xrotation Yrotation Zrotation
						End Site
						{
							OFFSET 1.671803 -0.049743 6.701437
						}
					}
				}
			}
		}
	}
	JOINT mixamorig6:RightUpLeg
	{
		OFFSET -9.149300 -5.691597 -0.455500
		CHANNELS 3 Xrotation Yrotation Zrotation
		JOINT mixamorig6:RightLeg
		{
			OFFSET -0.367382 -40.775345 -2.947703
			CHANNELS 3 Xrotation Yrotation Zrotation
			JOINT mixamorig6:RightFoot
			{
				OFFSET 0.367374 -38.890850 -2.831249
				CHANNELS 3 Xrotation Yrotation Zrotation
				JOINT mixamorig6:RightToeBase
				{
					OFFSET -3.266890 -11.731076 15.306957
					CHANNELS 3 Xrotation Yrotation Zrotation
					JOINT mixamorig6:RightToe_End
					{
						OFFSET -1.671815 -0.050072 7.010748
						CHANNELS 3 Xrotation Yrotation Zrotation
						End Site
						{
							OFFSET -1.671817 -0.050072 7.010748
						}
					}
				}
			}
		}
	}
}
MOTION
Frames: 4
Frame Time: 0.033333
-2.210212 97.516640 -2.293907 -1.348075 3.442702 -1.327655 3.717882 1.787445 2.365098 1.772997 0.791077 1.756866 1.746790 0.819188 1.765110 9.584795 -1.380368 -2.439257 9.578799 -1.410439 -2.398988 -0.000002 -0.000001 0.000000 0.913104 -17.625406 -13.167704 1.267897 -17.254110 -69.543477 0.000003 -1.186870 0.000029 -33.146713 -2.427073 -5.526376 -1.175923 1.650352 4.933024 11.961684 25.468450 16.706224 -13.701015 3.402969 8.696651 0.000002 0.000001 0.000000 -0.004355 -1.050666 -7.442534 0.266971 1.750029 -17.346396 0.057251 0.817924 -8.008052 -0.000000 -0.000000 -0.000000 -0.122368 2.478311 -15.468196 0.268402 1.754621 -17.393428 0.300158 1.852863 -18.401780 0.000000 -0.000000 0.000002 0.110387 3.562173 -20.900160 0.381771 2.082069 -20.778906 0.279056 1.788228 -17.737629 -0.000000 0.000000 0.000002 0.850200 5.450572 -26.966147 0.267802 1.752676 -17.373488 0.240965 1.664523 -16.473470 -0.000001 0.000000 -0.000001 1.169539 15.068210 14.890352 14.333632 19.153015 59.034718 -0.000021 2.965729 0.000017 -15.859959 -4.826001 8.324959 -0.967638 -1.823585 -4.894293 12.295008 -29.687919 -17.330471 -15.684397 -3.767571 -12.895440 0.000004 -0.000008 -0.000005 -0.334222 2.446012 7.176713 0.217928 -1.409356 17.578648 0.047974 -0.667482 8.222057 -0.000000 0.000000 -0.000002 -0.138806 -1.805654 11.325537 0.222435 -1.423549 17.761586 0.248138 -1.501338 18.767806 0.000000 -0.000001 -0.000002 0.868185 -5.655075 16.935222 0.295887 -1.635068 20.512340 0.216703 -1.405512 17.529158 0.000000 -0.000002 -0.000000 0.467799 -4.409225 23.192141 0.166070 -1.233872 15.331113 0.147218 -1.162917 14.429482 0.000000 -0.000000 0.000000 -12.926455 13.928991 8.097563 1.459035 -4.313328 4.300355 11.275439 -1.127180 -8.849174 -4.808112 -0.000000 0.000013 -0.000000 -0.000003 -0.000001 -6.559830 -9.784545 4.228149 10.510147 -10.319215 -6.081672 -2.683195 -10.994501 2.487526 -6.922697 -0.000008 -0.000014 0.000001 0.000001 -0.000000 
-2.161537 97.489792 -2.467467 -1.506812 2.119161 -1.465642 3.727346 1.769388 2.350813 1.789321 0.759271 1.725567 1.763186 0.787188 1.733497 9.350993 -1.128864 -2.379135 9.345120 -1.158622 -2.339560 0.000003 -0.000000 0.000000 0.923550 -17.694402 -13.109430 1.332258 -17.370856 -69.502858 -0.000004 -1.252327 -0.000005 -33.132175 -2.290428 -5.597207 -1.310004 1.573586 4.991831 11.981261 25.477538 16.641397 -13.691196 3.387569 8.663447 -0.000000 0.000001 0.000000 -0.012612 -1.093837 -7.451987 0.266968 1.750010 -17.346194 0.057238 0.817903 -8.007874 -0.000000 -0.000000 0.000001 -0.128245 2.459943 -15.498816 0.268397 1.754562 -17.392812 0.300118 1.852793 -18.401102 0.000000 0.000000 -0.000001 0.111039 3.564590 -20.915668 0.382272 2.083368 -20.792440 0.279459 1.789518 -17.750900 0.000000 0.000000 0.000000 0.838928 5.428339 -26.964062 0.267910 1.753012 -17.376910 0.241061 1.664859 -16.476906 0.000000 -0.000000 0.000001 1.196600 15.347531 14.739060 12.760506 19.126961 59.241352 0.000005 3.121474 0.000000 -15.750718 -4.109282 6.013735 -1.238407 -1.704455 -4.749351 12.272583 -29.677459 -17.384910 -15.782412 -3.837751 -13.206573 0.000005 -0.000005 -0.000003 -0.332117 2.246703 7.704747 0.218013 -1.409614 17.582025 0.047991 -0.667669 8.224643 0.000001 0.000002 -0.000001 -0.141351 -1.921010 12.386269 0.222308 -1.423101 17.755861 0.247981 -1.500879 18.761999 -0.000000 -0.000001 -0.000001 0.830288 -5.439965 17.776054 0.298690 -1.642540 20.610376 0.218946 -1.412630 17.620775 -0.000001 0.000001 0.000001 0.505602 -4.476218 24.163295 0.166841 -1.236641 15.366445 0.147936 -1.165692 14.464754 -0.000001 -0.000005 0.000003 -12.605016 13.980104 8.357282 1.435523 -4.049979 4.297184 11.140240 -0.127925 -8.924382 -4.820532 -0.000003 0.000011 -0.000000 -0.000000 0.000000 -6.840365 -9.879904 3.954656 11.064261 -10.271386 -5.543587 -2.825673 -9.667778 2.245172 -7.077828 0.000023 -0.000008 0.000001 0.000000 -0.000000 
-2.112741 97.473869 -2.607589 -1.685797 0.895622 -1.597527 3.726097 1.748120 2.339443 1.787258 0.721823 1.696707 1.761198 0.749433 1.704263 9.163803 -0.904701 -2.289287 9.157979 -0.934084 -2.250321 0.000001 0.000000 -0.000000 0.930211 -17.801939 -13.076875 1.542732 -17.437330 -69.360366 -0.000006 -1.523837 -0.000009 -33.409447 -2.264515 -5.723311 -1.405391 1.441810 4.989006 12.006758 25.489076 16.557220 -13.679589 3.368699 8.624066 0.000003 0.000005 -0.000002 -0.014494 -1.127928 -7.379258 0.266972 1.750069 -17.346789 0.057256 0.817965 -8.008447 -0.000000 0.000000 -0.000001 -0.134966 2.430215 -15.446543 0.268368 1.754497 -17.392197 0.300099 1.852730 -18.400408 0.000000 -0.000000 0.000001 0.103311 3.541993 -20.865468 0.382665 2.084435 -20.803648 0.279872 1.790760 -17.763580 -0.000000 0.000000 -0.000004 0.821766 5.396986 -26.901974 0.268352 1.754452 -17.391658 0.241505 1.666309 -16.491663 -0.000000 -0.000000 0.000001 1.220394 15.499962 14.609711 11.261989 19.150636 59.540316 -0.000011 3.628256 -0.000002 -16.808081 -2.953277 4.422559 -1.479234 -1.425130 -4.592824 12.297715 -29.687544 -17.301924 -15.791034 -3.842842 -13.309135 0.000005 -0.000006 -0.000002 -0.336065 2.152613 8.013052 0.218048 -1.409711 17.583294 0.048012 -0.667759 8.225677 0.000003 -0.000001 -0.000000 -0.145602 -1.991051 13.193082 0.222193 -1.422806 17.752017 0.247881 -1.500600 18.758199 -0.000003 0.000000 0.000001 0.755727 -5.153443 18.439025 0.303061 -1.654098 20.762220 0.222571 -1.423969 17.767112 -0.000002 -0.000001 0.000005 0.544323 -4.552982 24.910632 0.167016 -1.237291 15.374739 0.148112 -1.166377 14.473420 0.000002 -0.000003 0.000002 -12.260616 14.030850 8.643975 1.361592 -3.020852 4.239224 11.002794 0.022060 -8.857511 -4.840814 -0.000007 0.000007 0.000000 0.000001 -0.000000 -7.061180 -9.985112 3.701460 11.638976 -10.262850 -5.037070 -3.161707 -8.384974 2.003515 -7.205725 0.000007 -0.000009 0.000000 0.000000 0.000000 
-2.064434 97.471184 -2.710236 -1.869367 -0.205236 -1.720889 3.710180 1.719028 2.327443 1.762723 0.671661 1.667842 1.736784 0.699062 1.674844 9.010651 -0.708238 -2.162206 9.004895 -0.737171 -2.123780 0.000002 -0.000000 -0.000000 0.937107 -17.931504 -13.044685 1.827181 -17.453517 -69.166457 0.000003 -1.870452 0.000008 -33.771368 -2.321792 -5.826516 -1.472396 1.391273 5.012485 12.020734 25.495867 16.511040 -13.670966 3.356537 8.596941 0.000001 -0.000001 -0.000001 -0.011964 -1.149154 -7.283516 0.267000 1.750185 -17.347972 0.057278 0.818075 -8.009566 0.000000 0.000000 0.000002 -0.137014 2.412657 -15.347964 0.268363 1.754439 -17.391545 0.300073 1.852654 -18.399669 0.000000 -0.000000 0.000005 0.095993 3.517338 -20.754571 0.382453 2.083860 -20.797649 0.279702 1.790282 -17.758748 0.000000 0.000000 0.000003 0.809764 5.376683 -26.835733 0.268034 1.753443 -17.381373 0.241193 1.665302 -16.481388 0.000000 -0.000000 -0.000004 1.232479 15.535296 14.538958 9.988541 19.407513 59.796107 -0.000003 4.390889 -0.000001 -18.727240 -1.586358 3.722098 -1.579293 -1.064861 -4.306328 12.285175 -29.684771 -17.333345 -15.805269 -3.881283 -13.530133 0.000005 -0.000003 -0.000000 -0.330435 1.977381 8.484517 0.218001 -1.409608 17.581817 0.048007 -0.667628 8.224072 0.000002 -0.000001 -0.000001 -0.152542 -2.054482 14.082053 0.222546 -1.423900 17.766171 0.248255 -1.501686 18.772423 0.000003 -0.000000 -0.000001 0.695370 -4.924125 19.194196 0.306916 -1.664234 20.895483 0.225752 -1.433839 17.894433 -0.000001 -0.000002 -0.000000 0.581836 -4.626228 25.704819 0.169437 -1.246037 15.486035 0.150399 -1.175153 14.584716 -0.000002 0.000001 -0.000000 -11.923905 14.122191 8.911906 1.303231 -2.019119 4.175990 10.865775 0.039530 -8.787747 -4.859578 -0.000009 0.000014 0.000000 0.000001 -0.000000 -7.127434 -10.083636 3.493512 11.966993 -10.264570 -4.593577 -3.386107 -7.188676 1.786253 -7.313468 -0.000003 -0.000014 -0.000001 0.000003 0.000001 
